<?xml version="1.0" standalone="no"?>
<!DOCTYPE svg PUBLIC "-//W3C//DTD SVG 20010904//EN"
 "http://www.w3.org/TR/2001/REC-SVG-20010904/DTD/svg10.dtd">
<svg version="1.0" xmlns="http://www.w3.org/2000/svg"
 width="68pt" height="68pt" viewBox="0 0 40 40"
 preserveAspectRatio="xMidYMid meet">
<g transform="translate(0.000000,68.000000) scale(0.008850,-0.008850)"
fill="#000000" stroke="none">
<path d="M2015 7668 c-242 -24 -521 -105 -750 -217 -457 -224 -812 -579 -1036
-1036 -421 -861 -248 -1895 431 -2575 878 -878 2302 -878 3180 0 679 679 852
1715 431 2575 -417 851 -1312 1348 -2256 1253z m430 -458 c604 -69 1132 -435
1400 -968 137 -274 190 -500 190 -812 0 -204 -8 -269 -52 -445 -104 -418 -373
-798 -737 -1042 -601 -402 -1390 -403 -1990 -1 -417 278 -687 702 -778 1218
-17 99 -17 441 0 540 78 442 287 817 606 1087 290 247 605 381 1001 427 68 7
276 5 360 -4z"/>
<path d="M2095 6683 c-431 -54 -800 -314 -994 -701 -33 -66 -91 -229 -91 -256
0 -15 29 -16 297 -14 l297 3 34 60 c48 82 181 213 259 253 187 98 375 114 565
48 102 -36 173 -81 258 -166 211 -210 260 -526 123 -800 -48 -96 -178 -231
-273 -283 -191 -104 -424 -114 -618 -26 -133 60 -252 168 -318 288 l-27 51
-299 0 c-239 0 -298 -3 -298 -13 0 -28 60 -189 100 -269 178 -351 519 -605
904 -673 114 -19 328 -19 442 0 329 58 638 258 821 533 151 224 217 441 217
707 0 161 -13 250 -59 391 -81 249 -237 466 -449 626 -93 70 -291 169 -396
198 -150 42 -362 60 -495 43z"/>
</g>
</svg>